<?xml version="1.0" encoding="UTF-8" standalone="no"?>
<!-- Created with Inkscape (http://www.inkscape.org/) -->

<svg
   xmlns:dc="http://purl.org/dc/elements/1.1/"
   xmlns:cc="http://creativecommons.org/ns#"
   xmlns:rdf="http://www.w3.org/1999/02/22-rdf-syntax-ns#"
   xmlns:svg="http://www.w3.org/2000/svg"
   xmlns="http://www.w3.org/2000/svg"
   xmlns:xlink="http://www.w3.org/1999/xlink"
   xmlns:sodipodi="http://sodipodi.sourceforge.net/DTD/sodipodi-0.dtd"
   xmlns:inkscape="http://www.inkscape.org/namespaces/inkscape"
   width="55mm"
   height="55mm"
   viewBox="0 0 55 55"
   id="svg2"
   version="1.1"
   inkscape:version="0.91+devel+osxmenu r12922"
   sodipodi:docname="icon.svg">
  <defs
     id="defs4">
    <linearGradient
       inkscape:collect="always"
       id="linearGradient4209">
      <stop
         style="stop-color:#12adff;stop-opacity:1;"
         offset="0"
         id="stop4211" />
      <stop
         style="stop-color:#008ad3;stop-opacity:1"
         offset="1"
         id="stop4213" />
    </linearGradient>
    <linearGradient
       inkscape:collect="always"
       id="linearGradient4197">
      <stop
         style="stop-color:#ff9d3d;stop-opacity:1;"
         offset="0"
         id="stop4199" />
      <stop
         style="stop-color:#cb6400;stop-opacity:1"
         offset="1"
         id="stop4201" />
    </linearGradient>
    <linearGradient
       inkscape:collect="always"
       id="linearGradient4181">
      <stop
         style="stop-color:#00d196;stop-opacity:1;"
         offset="0"
         id="stop4183" />
      <stop
         style="stop-color:#009e71;stop-opacity:1"
         offset="1"
         id="stop4185" />
    </linearGradient>
    <radialGradient
       inkscape:collect="always"
       xlink:href="#linearGradient4181"
       id="radialGradient4187"
       cx="57.502174"
       cy="-93.422539"
       fx="57.502174"
       fy="-93.422539"
       r="12.851191"
       gradientUnits="userSpaceOnUse"
       gradientTransform="matrix(0.99996164,-0.0087588,0.01039863,1.1871752,3.6195054,12.698363)" />
    <radialGradient
       inkscape:collect="always"
       xlink:href="#linearGradient4197"
       id="radialGradient4205"
       cx="40.068783"
       cy="-88.02375"
       fx="40.068783"
       fy="-88.02375"
       r="9.8293486"
       gradientUnits="userSpaceOnUse"
       gradientTransform="matrix(1.1087641,-8.379569e-8,8.687809e-8,1.1495497,-1.7515301,7.8548523)" />
    <radialGradient
       inkscape:collect="always"
       xlink:href="#linearGradient4209"
       id="radialGradient4217"
       cx="37.866402"
       cy="-106.87706"
       fx="37.866402"
       fy="-106.87706"
       r="16.630953"
       gradientUnits="userSpaceOnUse"
       gradientTransform="translate(2.6458333,-5.2916789)" />
  </defs>
  <sodipodi:namedview
     id="base"
     pagecolor="#ffffff"
     bordercolor="#666666"
     borderopacity="1.0"
     inkscape:pageopacity="0.0"
     inkscape:pageshadow="2"
     inkscape:zoom="0.5"
     inkscape:cx="-115.77044"
     inkscape:cy="-232.02828"
     inkscape:document-units="mm"
     inkscape:current-layer="layer1"
     showgrid="false"
     inkscape:snap-others="false"
     inkscape:snap-nodes="false"
     inkscape:window-width="1218"
     inkscape:window-height="791"
     inkscape:window-x="0"
     inkscape:window-y="23"
     inkscape:window-maximized="0"
     fit-margin-top="0"
     fit-margin-left="0"
     fit-margin-right="0"
     fit-margin-bottom="0" />
  <metadata
     id="metadata7">
    <rdf:RDF>
      <cc:Work
         rdf:about="">
        <dc:format>image/svg+xml</dc:format>
        <dc:type
           rdf:resource="http://purl.org/dc/dcmitype/StillImage" />
        <dc:title></dc:title>
      </cc:Work>
    </rdf:RDF>
  </metadata>
  <g
     inkscape:label="Layer 1"
     inkscape:groupmode="layer"
     id="layer1"
     transform="translate(-17.249189,134.94923)">
    <path
       style="opacity:1;fill:#6a6a6a;fill-opacity:1;stroke:none;stroke-width:1.39883673;stroke-linecap:round;stroke-linejoin:round;stroke-miterlimit:4;stroke-dasharray:none;stroke-opacity:1"
       d="m 36.339384,-107.61657 a 16.444288,8.2279816 0 0 0 -16.444362,8.228025 16.444288,8.2279816 0 0 0 9.007788,7.328848 9.7190245,4.8629625 0 0 0 -0.826741,1.955825 9.7190245,4.8629625 0 0 0 9.719051,4.862975 9.7190245,4.8629625 0 0 0 8.746173,-2.756308 12.706949,6.3579857 0 0 0 7.73753,1.324593 12.706949,6.3579857 0 0 0 12.70666,-6.358095 12.706949,6.3579857 0 0 0 -12.70666,-6.357838 12.706949,6.3579857 0 0 0 -1.500188,0.05242 16.444288,8.2279816 0 0 0 0.005,-0.05242 16.444288,8.2279816 0 0 0 -16.444359,-8.228025 z"
       id="circle4219"
       inkscape:connector-curvature="0" />
    <circle
       style="opacity:1;fill:url(#radialGradient4217);fill-opacity:1;stroke:none;stroke-width:2;stroke-linecap:round;stroke-linejoin:round;stroke-miterlimit:4;stroke-dasharray:none;stroke-opacity:1"
       id="path4141"
       cx="38.931545"
       cy="-114.23809"
       r="16.630953" />
    <path
       style="opacity:1;fill:#000000;fill-opacity:0.22099448;stroke:none;stroke-width:1.5454545;stroke-linecap:round;stroke-linejoin:round;stroke-miterlimit:4;stroke-dasharray:none;stroke-opacity:1"
       d="m 55.446744,-116.02238 a 12.85119,12.85119 0 0 0 -12.279355,9.87382 9.8293485,9.8293485 0 0 0 -4.181138,-0.94723 9.8293485,9.8293485 0 0 0 -9.296591,6.67505 16.630953,16.630953 0 0 0 9.241814,2.81378 16.630953,16.630953 0 0 0 16.631025,-16.63103 16.630953,16.630953 0 0 0 -0.115755,-1.78439 z"
       id="circle4160"
       inkscape:connector-curvature="0" />
    <circle
       style="opacity:1;fill:url(#radialGradient4187);fill-opacity:1;stroke:none;stroke-width:1.5454545;stroke-linecap:round;stroke-linejoin:round;stroke-miterlimit:4;stroke-dasharray:none;stroke-opacity:1"
       id="path4141-3"
       cx="57.074406"
       cy="-101.3869"
       r="12.851191" />
    <path
       style="opacity:1;fill:#000000;fill-opacity:0.27624308;stroke:none;stroke-width:1.18205464;stroke-linecap:round;stroke-linejoin:round;stroke-miterlimit:4;stroke-dasharray:none;stroke-opacity:1"
       d="m 44.724401,-104.89902 a 12.85119,12.85119 0 0 0 -0.501261,3.51193 12.85119,12.85119 0 0 0 4.893758,10.073284 9.8293485,9.8293485 0 0 0 1.210262,-4.72426 9.8293485,9.8293485 0 0 0 -5.602759,-8.860954 z"
       id="circle4176"
       inkscape:connector-curvature="0" />
    <circle
       r="9.8293486"
       cy="-95.470955"
       cx="40.403496"
       id="circle4158"
       style="opacity:1;fill:url(#radialGradient4205);fill-opacity:1;stroke:none;stroke-width:1.18205464;stroke-linecap:round;stroke-linejoin:round;stroke-miterlimit:4;stroke-dasharray:none;stroke-opacity:1" />
  </g>
</svg>
